<?xml version="1.0" encoding="UTF-8"?>
<svg xmlns="http://www.w3.org/2000/svg" xmlns:xlink="http://www.w3.org/1999/xlink" width="512" height="512" viewBox="0 0 58 58" version="1.1"><!-- Generator: Sketch 51.3 (57544) - http://www.bohemiancoding.com/sketch --><title>012 - Global Family</title><desc>Created with Sketch.</desc><defs/><g id="Page-1" stroke="none" stroke-width="1" fill="none" fill-rule="evenodd"><g id="012---Global-Family" fill-rule="nonzero"><circle id="Oval" fill="#35495E" cx="49" cy="46" r="8"/><path d="M54.81,51.5 C54.2999162,49.5349374 52.8334961,47.9594759 50.91,47.31 L47.09,47.31 C45.1665039,47.9594759 43.7000838,49.5349374 43.19,51.5 L49.5,53.5 L54.81,51.5 Z" id="Shape" fill="#C03A2B"/><circle id="Oval" fill="#FDD7AD" cx="49" cy="45" r="3"/><path d="M55.8,40.12 C53.3452233,37.2727934 49.3781518,36.2534764 45.8548993,37.5646615 C42.3316469,38.8758466 39.9961447,42.2406784 40,46 L40,46.21 C40.0734686,49.2681151 41.6973794,52.0788749 44.31,53.67 C45.717848,54.5439874 47.3429344,55.0048328 49,55 C52.5223691,55.0045198 55.7227665,52.9512187 57.1868199,49.7475252 C58.6508734,46.5438318 58.1087368,42.7802328 55.8,40.12 Z M49,53 C45.1446618,52.9927647 42.0238019,49.8640858 42.0262137,46.0087415 C42.0286254,42.1533973 45.1533973,39.0286254 49.0087415,39.0262137 C52.8640858,39.0238019 55.9927647,42.1446618 56,46 C56.0153162,47.8611685 55.2827376,49.6505587 53.9666482,50.9666482 C52.6505587,52.2827376 50.8611685,53.0153162 49,53 Z" id="Shape" fill="#FF5364"/><path d="M27.27,34.52 C27.2058368,34.6432366 27.0992911,34.7391277 26.97,34.79 C26.7326781,34.8547475 26.481113,34.8442656 26.25,34.76 C24.07,34.21 21.89,33.67 19.71,33.14 C17.89,32.7 15.88,32.12 14.97,30.49 C14.2,29.11 14.42,27.3 13.49,26.04 C12.67,24.93 11.22,24.56 9.9,24.18 C8.59,23.79 7.15,23.17 6.66,21.89 C5.86,19.78 8.15,17.52 7.59,15.33 C7.41206862,14.5025579 6.79964936,13.836552 5.99,13.59 C7.49,13.2 9.14,13.57 9.59,15.33 C10.15,17.52 7.86,19.78 8.66,21.89 C9.15,23.17 10.59,23.79 11.9,24.18 C13.22,24.56 14.67,24.93 15.49,26.04 C16.42,27.3 16.2,29.11 16.97,30.49 C17.88,32.12 19.89,32.7 21.71,33.14 C23.56,33.59 25.42,34.05 27.27,34.52 Z" id="Shape" fill="#B19046"/><path d="M30.13,40.94 C29.6801477,41.0719503 29.2731007,41.320318 28.95,41.66 C28.1972688,42.7260197 27.5666494,43.8732102 27.07,45.08 C26.6488782,45.8576611 26.0778905,46.5442059 25.39,47.1 C24.66,47.66 23.69,47.84 23.06,48.53 C22.32,49.35 22.4,50.59 21.91,51.55 C21.5131879,52.2013066 21.2798815,52.9389665 21.23,53.7 C21.3609668,54.9703844 22.0739009,56.1081239 23.16,56.78 C23.6042498,57.0911992 24.0649151,57.3782805 24.54,57.64 C23.4951945,57.4735106 22.4603069,57.2498414 21.44,56.97 C21.342855,56.9124743 21.2493447,56.8490209 21.16,56.78 C20.0739009,56.1081239 19.3609668,54.9703844 19.23,53.7 C19.2798815,52.9389665 19.5131879,52.2013066 19.91,51.55 C20.4,50.59 20.32,49.35 21.06,48.53 C21.69,47.84 22.66,47.66 23.39,47.1 C24.0778905,46.5442059 24.6488782,45.8576611 25.07,45.08 C25.5666494,43.8732102 26.1972688,42.7260197 26.95,41.66 C27.8044119,40.8675313 29.0175625,40.5928557 30.13,40.94 Z" id="Shape" fill="#B19046"/><path d="M54.12,14.63 L43.31,3.91 C38.9707368,1.45168988 34.0672281,0.162925103 29.08,0.17 C28.74,0.17 28.4,0.18 28.06,0.19 L28.04,0.19 C25.7142565,0.26564917 23.4067727,0.628397713 21.17,1.27 C22.1671056,2.80232682 23.7793659,3.8273158 25.59,4.08 C25.7855356,4.10988503 25.9824513,4.12991035 26.18,4.14 C26.737866,4.15351576 27.2959805,4.12677974 27.85,4.06 C28.9562332,3.83889757 30.1049132,4.00854875 31.1,4.54 C31.9723812,5.03780866 32.4058881,6.05614094 32.16,7.03 C31.7,8.32 29.78,8.96 29.9,10.32 C29.9753401,10.8656309 30.3560382,11.3201377 30.88,11.49 C31.3824843,11.6885499 31.933293,11.7303835 32.46,11.61 C33.36,11.4 34.17,10.89 35.06,10.64 C35.2142357,10.5961194 35.3712599,10.56271 35.53,10.54 C36.7779329,10.4511991 38.0163034,10.8131297 39.02,11.56 L41.28,16.6 C40.6667323,17.0513693 40.0291026,17.4686663 39.37,17.85 C38.1739241,18.7566107 36.8623845,19.4998164 35.47,20.06 C34.08,20.56 32.48,20.63 31.23,21.44 C29.99,22.24 30.05,23.42 30.21,24.72 C30.2782994,25.0441406 30.1975492,25.3818232 29.99,25.64 C29.6214523,25.9122702 29.1264388,25.939771 28.73,25.71 C28.52,25.62 28.32,25.53 28.12,25.44 C27.4801442,25.0146296 26.6812638,24.9041853 25.95,25.14 C25.8737889,25.1706043 25.8002101,25.2073937 25.73,25.25 C24.9390832,25.6975327 24.4558024,26.5413563 24.47,27.45 C24.47,29.58 26.31,30.75 27.78,31.94 C28.2,32.29 30.1,34.32 28.97,34.79 C28.7326781,34.8547475 28.481113,34.8442656 28.25,34.76 C27.92,34.68 27.6,34.6 27.27,34.52 C27.2058368,34.6432366 27.0992911,34.7391277 26.97,34.79 C26.7326781,34.8547475 26.481113,34.8442656 26.25,34.76 C24.07,34.21 21.89,33.67 19.71,33.14 C17.89,32.7 15.88,32.12 14.97,30.49 C14.2,29.11 14.42,27.3 13.49,26.04 C12.67,24.93 11.22,24.56 9.9,24.18 C8.59,23.79 7.15,23.17 6.66,21.89 C5.86,19.78 8.15,17.52 7.59,15.33 C7.41206862,14.5025579 6.79964936,13.836552 5.99,13.59 C5.74318368,13.6522272 5.50226953,13.735878 5.27,13.84 C4.91881699,13.9916125 4.59978112,14.2088284 4.33,14.48 C4.01155012,14.7873352 3.74178772,15.1413984 3.53,15.53 C3.52,15.54 3.51,15.56 3.5,15.57 C3.43,15.72 3.35,15.86 3.27,16.01 C3.19,16.18 3.1,16.36 3.02,16.53 C2.99,16.59 2.96,16.65 2.94,16.7 C2.91,16.76 2.89,16.81 2.86,16.87 C-0.13145115,23.3269538 -0.64744764,30.6576626 1.41,37.47 L7,47.75 L7.01,47.75 C10.7746697,52.2144605 15.8068943,55.4297835 21.44,56.97 C21.342855,56.9124743 21.2493447,56.8490209 21.16,56.78 C20.0739009,56.1081239 19.3609668,54.9703844 19.23,53.7 C19.2798815,52.9389665 19.5131879,52.2013066 19.91,51.55 C20.4,50.59 20.32,49.35 21.06,48.53 C21.69,47.84 22.66,47.66 23.39,47.1 C24.0778905,46.5442059 24.6488782,45.8576611 25.07,45.08 C25.5666494,43.8732102 26.1972688,42.7260197 26.95,41.66 C27.8044119,40.8675313 29.0175625,40.5928557 30.13,40.94 C31.4141244,40.7123585 32.7374816,40.9311535 33.88,41.56 C35.4396687,42.2709655 36.8800201,43.2188314 38.15,44.37 C38.2024596,44.4139597 38.2525311,44.4606931 38.3,44.51 C38.86,45.08 39.42,45.65 40,46.21 L40,46 C40.004732,41.4226497 43.4419142,37.5767913 47.99,37.06 L48,37.06 C48.3318128,37.0197906 48.6657599,36.9997538 49,37 C50.9200173,36.9962717 52.7897405,37.6136663 54.33,38.76 C54.8734538,39.1519027 55.3670962,39.6086058 55.8,40.12 C59.2406955,31.8254372 58.6195633,22.4012346 54.12,14.63 Z" id="Shape" fill="#3B97D3"/><circle id="Oval" fill="#35495E" cx="47" cy="11" r="8"/><circle id="Oval" fill="#35495E" cx="9" cy="40" r="8"/><path d="M41.28,16.6 C40.6667323,17.0513693 40.0291026,17.4686663 39.37,17.85 C38.1739241,18.7566107 36.8623845,19.4998164 35.47,20.06 C34.08,20.56 32.48,20.63 31.23,21.44 C29.99,22.24 30.05,23.42 30.21,24.72 C30.2782994,25.0441406 30.1975492,25.3818232 29.99,25.64 C29.6214523,25.9122702 29.1264388,25.939771 28.73,25.71 C27.8,25.33 26.98,24.71 25.95,25.14 C25.0358896,25.5409915 24.4522364,26.4519637 24.47,27.45 C24.47,29.58 26.31,30.75 27.78,31.94 C28.2,32.29 30.1,34.32 28.97,34.79 C28.7326781,34.8547475 28.481113,34.8442656 28.25,34.76 C26.07,34.21 23.89,33.67 21.71,33.14 C19.89,32.7 17.88,32.12 16.97,30.49 C16.2,29.11 16.42,27.3 15.49,26.04 C14.67,24.93 13.22,24.56 11.9,24.18 C10.59,23.79 9.15,23.17 8.66,21.89 C7.86,19.78 10.15,17.52 9.59,15.33 C9.06,13.28 6.91,13.11 5.27,13.84 C4.91881699,13.9916125 4.59978112,14.2088284 4.33,14.48 C4.01155012,14.7873352 3.74178772,15.1413984 3.53,15.53 C7.36649739,8.69273885 13.6805795,3.58849789 21.17,1.27 C22.2839144,2.97389841 24.1467082,4.04100778 26.18,4.14 C27.86,4.22 29.53,3.55 31.1,4.54 C31.9723812,5.03780866 32.4058881,6.05614094 32.16,7.03 C31.7,8.32 29.78,8.96 29.9,10.32 C30,11.4 31.41,11.86 32.46,11.61 C33.52,11.36 34.45,10.7 35.53,10.54 C36.7779329,10.4511991 38.0163034,10.8131297 39.02,11.56 L41.28,16.6 Z" id="Shape" fill="#71C285"/><path d="M44.31,53.67 C39.7365714,56.5056102 34.461162,58.0054475 29.08,58 C27.5594508,58.0022119 26.0411985,57.8818219 24.54,57.64 C24.0649151,57.3782805 23.6042498,57.0911992 23.16,56.78 C22.0739009,56.1081239 21.3609668,54.9703844 21.23,53.7 C21.2798815,52.9389665 21.5131879,52.2013066 21.91,51.55 C22.4,50.59 22.32,49.35 23.06,48.53 C23.69,47.84 24.66,47.66 25.39,47.1 C26.0778905,46.5442059 26.6488782,45.8576611 27.07,45.08 C27.5666494,43.8732102 28.1972688,42.7260197 28.95,41.66 C30.25,40.29 32.4,40.85 33.88,41.56 C35.5043718,42.2956739 36.9974286,43.292171 38.3,44.51 C38.86,45.08 39.42,45.65 40,46.21 C40.0734686,49.2681151 41.6973794,52.0788749 44.31,53.67 Z" id="Shape" fill="#71C285"/><path d="M52.81,16.5 C52.2999162,14.5349374 50.8334961,12.9594759 48.91,12.31 L45.09,12.31 C43.1665039,12.9594759 41.7000838,14.5349374 41.19,16.5 L47,18.5 L52.81,16.5 Z" id="Shape" fill="#C03A2B"/><circle id="Oval" fill="#FDD7AD" cx="47" cy="10" r="3"/><path d="M14.81,45.5 C14.2999162,43.5349374 12.8334961,41.9594759 10.91,41.31 L7.09,41.31 C5.16650386,41.9594759 3.70008384,43.5349374 3.19,45.5 L9,48.5 L14.81,45.5 Z" id="Shape" fill="#C03A2B"/><circle id="Oval" fill="#FDD7AD" cx="9" cy="39" r="3"/><path d="M47,20 C42.0294373,20 38,15.9705627 38,11 C38,6.02943725 42.0294373,2 47,2 C51.9705627,2 56,6.02943725 56,11 C55.9944889,15.9682782 51.9682782,19.9944889 47,20 Z M47,4 C43.1340068,4 40,7.13400675 40,11 C40,14.8659932 43.1340068,18 47,18 C50.8659932,18 54,14.8659932 54,11 C53.9957013,7.13578871 50.8642113,4.00429865 47,4 Z" id="Shape" fill="#FF5364"/><path d="M9,49 C4.02943725,49 6.66133815e-16,44.9705627 0,40 C-6.66133815e-16,35.0294373 4.02943725,31 9,31 C13.9705627,31 18,35.0294373 18,40 C17.9944889,44.9682782 13.9682782,48.9944889 9,49 Z M9,33 C5.13400675,33 2,36.1340068 2,40 C2,43.8659932 5.13400675,47 9,47 C12.8659932,47 16,43.8659932 16,40 C15.9957013,36.1357887 12.8642113,33.0042987 9,33 Z" id="Shape" fill="#FF5364"/></g></g></svg>
